<svg width="18" height="8" viewBox="0 0 18 8" fill="none" xmlns="http://www.w3.org/2000/svg">
<path id="Vector" d="M2.76429 8L1.09286 6.9916L2.18571 4.97479H0V2.95798H2.18571L1.09286 1.0084L2.76429 0L3.85714 1.94958L4.95 0L6.62143 1.0084L5.52857 2.95798H7.71429V4.97479H5.52857L6.62143 6.9916L4.95 8L3.85714 5.98319L2.76429 8ZM13.05 8L11.3786 6.9916L12.4714 4.97479H10.2857V2.95798H12.4714L11.3786 1.0084L13.05 0L14.1429 1.94958L15.2357 0L16.9071 1.0084L15.8143 2.95798H18V4.97479H15.8143L16.9071 6.9916L15.2357 8L14.1429 5.98319L13.05 8Z" fill="#EEF0F2"/>
</svg>
