<svg width="10" height="10" viewBox="0 0 10 10" fill="none" xmlns="http://www.w3.org/2000/svg">
<path id="Vector" d="M8.85672 5C8.85672 4.885 8.85157 4.775 8.84129 4.66L9.79775 3.955C10.0034 3.805 10.06 3.525 9.93145 3.305L8.96985 1.69C8.90819 1.58409 8.80846 1.50407 8.68981 1.46531C8.57117 1.42655 8.44198 1.43178 8.32706 1.48L7.22147 1.935C7.0312 1.805 6.83065 1.69 6.61982 1.595L6.47069 0.44C6.43984 0.19 6.21872 0 5.96161 0H4.04353C3.78128 0 3.56016 0.19 3.52931 0.44L3.38018 1.595C3.16935 1.69 2.9688 1.805 2.77853 1.935L1.67294 1.48C1.43639 1.38 1.15871 1.47 1.03015 1.69L0.0685457 3.31C-0.0600116 3.53 -0.0034464 3.805 0.202245 3.96L1.15871 4.665C1.13739 4.88952 1.13739 5.11548 1.15871 5.34L0.202245 6.045C-0.0034464 6.195 -0.0600116 6.475 0.0685457 6.695L1.03015 8.31C1.15871 8.53 1.43639 8.62 1.67294 8.52L2.77853 8.065C2.9688 8.195 3.16935 8.31 3.38018 8.405L3.52931 9.56C3.56016 9.81 3.78128 10 4.03839 10H5.95647C6.21358 10 6.4347 9.81 6.46555 9.56L6.61468 8.405C6.82551 8.31 7.02606 8.195 7.21633 8.065L8.32192 8.52C8.55846 8.62 8.83615 8.53 8.9647 8.31L9.92631 6.695C10.0549 6.475 9.9983 6.2 9.79261 6.045L8.83615 5.34C8.85157 5.225 8.85672 5.115 8.85672 5ZM5.02057 6.75C4.02811 6.75 3.22077 5.965 3.22077 5C3.22077 4.035 4.02811 3.25 5.02057 3.25C6.01303 3.25 6.82037 4.035 6.82037 5C6.82037 5.965 6.01303 6.75 5.02057 6.75Z" fill="#EEF0F2" fill-opacity="0.6"/>
</svg>
